<svg width="19" height="19" viewBox="0 0 19 19" fill="none" xmlns="http://www.w3.org/2000/svg">
<path d="M2.89054 12.3847L6.55659 12.3847L6.55659 15.0128C6.55659 16.3092 6.94434 17.2493 7.71202 17.8133C8.91837 18.6984 10.5556 18.201 10.6261 18.1775L11.1196 18.0208L11.1196 14.2804C11.1196 13.3756 11.6131 12.5727 12.5883 11.8873C12.9056 11.664 12.9839 11.2253 12.7607 10.9042C12.5374 10.5869 12.0987 10.5086 11.7776 10.7318C10.4224 11.6836 9.70563 12.9095 9.70563 14.2804L9.70563 16.9242C9.35312 16.9555 8.88703 16.932 8.54236 16.6813C8.15852 16.3993 7.96269 15.8392 7.96269 15.0206L7.96269 10.9825L2.88662 10.9825C2.08369 10.9825 1.4296 10.3441 1.4061 9.54507L2.4597 2.92973L2.46361 2.90623C2.51061 2.53806 2.6477 1.41396 4.36322 1.41396L12.2632 1.41396C13.0388 1.41396 13.6693 2.04455 13.6693 2.82006L13.6693 9.36098C13.6693 10.5556 14.6407 11.5308 15.8392 11.5308L16.8301 11.5308C18.0247 11.5308 19 10.5595 19 9.36098L19 2.65164C19 1.45705 18.0287 0.481783 16.8301 0.481783C16.4424 0.481783 16.1251 0.799038 16.1251 1.18679C16.1251 1.57455 16.4424 1.8918 16.8301 1.8918C17.2492 1.8918 17.59 2.23256 17.59 2.65164L17.59 9.36098C17.59 9.78007 17.2492 10.1208 16.8301 10.1208L15.8392 10.1208C15.4201 10.1208 15.0794 9.78007 15.0794 9.36098L15.0794 2.65165C15.0794 2.59681 15.0715 2.53806 15.0598 2.48714C14.8953 1.08887 13.7046 2.71658e-05 12.2632 2.72918e-05L4.37106 2.79818e-05C3.57205 2.80516e-05 2.8592 0.191947 2.3187 0.556201C1.62152 1.02229 1.19068 1.77038 1.07318 2.71823L0.0117504 9.37273C0.00391691 9.4119 -7.76568e-07 9.45499 -7.73144e-07 9.49415C-6.33783e-07 11.0883 1.29643 12.3847 2.89054 12.3847Z" fill="#426077"/>
</svg>
