<?xml version="1.0" encoding="UTF-8"?>
<svg id="Layer_1" data-name="Layer 1" xmlns="http://www.w3.org/2000/svg" version="1.1" viewBox="0 0 24 24">
  <defs>
    <style>
      .cls-1 {
        fill: #0166fe;
      }

      .cls-1, .cls-2 {
        stroke-width: 0px;
      }

      .cls-2 {
        fill: #06f;
      }
    </style>
  </defs>
  <g id="Layer_1-2" data-name="Layer 1-2">
    <path class="cls-1" d="M13.8,6.1c2.5,0,5,0,7.6,0,.9,0,1.6.4,2.1,1,.2.3.3.7.5,1v11.1h0c-.4.9-.9,1.7-1.9,1.9-.3,0-.5,0-.8,0H6.6c-.7,0-1.3.1-1.9.4-1.3.6-2.6,1.2-3.8,1.8-.6.3-.9,0-.9-.6,0-4.7,0-9.4,0-14.2,0-1.5,1.1-2.6,2.6-2.6,2.7,0,5.4,0,8.1,0M12,17.9h6.7c1.1,0,1.7-.6,1.7-1.7v-4.7c0-1.2-.6-1.8-1.8-1.8H5.4c-1.2,0-1.8.6-1.8,1.8v4.6c0,1.2.6,1.8,1.7,1.8h6.7Z"/>
    <path class="cls-1" d="M7.9,11.7c1,0,1.8.8,1.8,1.8,0,1-.8,1.8-1.8,1.8-1,0-1.8-.8-1.8-1.8,0-1,.8-1.8,1.8-1.8h0Z"/>
    <path class="cls-1" d="M16.1,11.7c1,0,1.8.8,1.8,1.8,0,1-.8,1.8-1.8,1.8-1,0-1.8-.8-1.8-1.8s.8-1.8,1.8-1.8Z"/>
    <path class="cls-2" d="M12,.9h0c1.1,0,2,.9,2,2.1h0c0,1.1-.9,2.1-2,2.1h0c-1.1,0-2-.9-2-2.1h0c0-1.1.9-2.1,2-2.1Z"/>
    <rect class="cls-2" x="11" y="3" width="2" height="3.2"/>
  </g>
</svg>