<?xml version="1.0" encoding="UTF-8"?>
<svg id="Layer_1" data-name="Layer 1" xmlns="http://www.w3.org/2000/svg" version="1.1" viewBox="0 0 50 50" width="50px" height="50px">
  <defs>
    <style>
      .cls-1 {
        fill: #0166fe;
      }

      .cls-1, .cls-2 {
        stroke-width: 0px;
      }

      .cls-2 {
        fill: #06f;
      }
    </style>
  </defs>
  <g id="Layer_1-2" data-name="Layer 1-2">
    <path class="cls-1" d="M28.8,11.7c5.2,0,10.5,0,15.7,0,1.8,0,3.3.8,4.4,2.2.5.6.6,1.4,1,2v23.2h0c-.8,1.9-1.9,3.5-4,4-.5.1-1.1.1-1.6.1H13.8c-1.4,0-2.7.3-4,.9-2.6,1.3-5.3,2.5-8,3.7-1.2.5-1.8.1-1.8-1.2,0-9.8,0-19.7,0-29.5,0-3.1,2.3-5.4,5.4-5.4,5.6,0,11.2,0,16.8,0M25,36.3h14c2.3,0,3.6-1.3,3.6-3.6v-9.7c0-2.6-1.2-3.8-3.8-3.8H11.2c-2.5,0-3.7,1.3-3.7,3.8v9.6c0,2.5,1.2,3.7,3.6,3.7h13.9Z"/>
    <path class="cls-1" d="M16.5,23.5c2.1,0,3.7,1.6,3.7,3.7,0,2.1-1.7,3.7-3.7,3.7-2.1,0-3.7-1.7-3.7-3.8,0-2.1,1.6-3.7,3.7-3.7h0Z"/>
    <path class="cls-1" d="M33.5,23.5c2.1,0,3.7,1.6,3.7,3.7,0,2.1-1.6,3.8-3.7,3.8-2.1,0-3.7-1.7-3.7-3.7s1.6-3.7,3.7-3.7Z"/>
    <path class="cls-2" d="M25,1h0c2.3,0,4.3,1.9,4.3,4.3h0c0,2.4-1.9,4.3-4.3,4.3h0c-2.3,0-4.3-1.9-4.3-4.3h0c0-2.4,1.9-4.3,4.3-4.3Z"/>
    <rect class="cls-2" x="22.9" y="5.3" width="4.3" height="6.6"/>
  </g>
</svg>