<svg width="16" height="16" viewBox="0 0 16 16" fill="none" xmlns="http://www.w3.org/2000/svg">
<path d="M14.993 1.61709C15.0127 1.47924 14.993 1.33153 14.9044 1.21337C14.8847 1.18383 14.865 1.17398 14.8552 1.17398L14.8355 1.14444C14.8355 1.14444 14.8059 1.12475 14.7961 1.1149C14.7961 1.1149 14.7862 1.10505 14.7764 1.09521C14.7567 1.07551 14.7272 1.05582 14.6976 1.03612C14.5991 0.986889 14.481 0.986889 14.3333 1.01643C14.3037 1.01643 14.2742 1.02628 14.2643 1.03612L1.33529 6.32394C1.12851 6.41256 0.990648 6.61935 1.0005 6.83598C1.0005 7.06246 1.15805 7.2594 1.37468 7.32833L6.98744 9.14017V14.428C6.98744 14.6545 7.13515 14.8613 7.34194 14.9302C7.54872 14.9991 7.7949 14.9302 7.93275 14.7628L10.3551 11.7595L14.1265 14.8416C14.225 14.9203 14.3431 14.9597 14.4613 14.9597C14.5401 14.9597 14.6188 14.94 14.6878 14.9105C14.8749 14.8219 14.993 14.6348 14.993 14.428V1.61709ZM12.3048 2.98582L7.36163 8.14563L3.08805 6.76705L12.3146 2.98582H12.3048ZM13.9197 13.3054L8.28724 8.71675L13.9295 2.85781V13.3054H13.9197ZM9.51811 11.0899L8.05092 12.9116V9.88854L9.51811 11.0899Z" fill="#222222"/>
</svg>
