<svg width="24" height="24" viewBox="0 0 24 24" fill="none" xmlns="http://www.w3.org/2000/svg">
<path d="M12.0001 12.882C6.57934 12.882 2.16943 17.1829 2.16943 22.4649C2.16943 22.7622 2.40727 23 2.70457 23H21.2956C21.5929 23 21.8307 22.7622 21.8307 22.4649C21.8307 17.1829 17.4208 12.882 12.0001 12.882ZM3.24961 21.9396C3.537 17.4505 7.36223 13.9523 12.0001 13.9523C16.6379 13.9523 20.4631 17.4505 20.7505 21.9396H3.24961ZM12.0001 10.3946C14.5866 10.3946 16.6974 8.28378 16.6974 5.6973C16.6974 3.11081 14.5866 1 12.0001 1C9.41358 1 7.30277 3.11081 7.30277 5.6973C7.30277 8.28378 9.40367 10.3946 12.0001 10.3946ZM8.37304 5.6973C8.37304 3.6955 9.99826 2.07027 12.0001 2.07027C14.0019 2.07027 15.637 3.6955 15.637 5.6973C15.637 7.6991 14.0019 9.33423 12.0001 9.33423C9.99826 9.33423 8.37304 7.70901 8.37304 5.6973Z" fill="#222222"/>
</svg>
