<svg width="24" height="24" viewBox="0 0 24 24" fill="none" xmlns="http://www.w3.org/2000/svg">
<path d="M21.9296 2.07027C21.2359 1.37658 20.3143 1 19.3332 1C18.3522 1 17.4305 1.38649 16.7468 2.07027L3.46748 15.3495C3.46748 15.3495 3.43775 15.3892 3.42784 15.409C3.33865 15.4784 3.26928 15.5577 3.23955 15.6568L1.02964 22.2964C0.96027 22.4946 1.00982 22.7027 1.15847 22.8414C1.25757 22.9405 1.39631 23 1.53504 23C1.5945 23 1.65396 23 1.70351 22.9703L8.34315 20.7604C8.44225 20.7306 8.53144 20.6613 8.5909 20.5721C8.61072 20.5721 8.63054 20.5523 8.65036 20.5324L21.9296 7.25315C22.6233 6.55946 22.9999 5.63784 22.9999 4.65676C22.9999 3.67568 22.6233 2.75405 21.9296 2.07027ZM21.9296 4.65676C21.9296 5.17207 21.781 5.65766 21.5134 6.07387L17.926 2.48649C18.3423 2.20901 18.8278 2.07027 19.3432 2.07027C20.0368 2.07027 20.6909 2.33784 21.1765 2.83333C21.6621 3.31892 21.9395 3.97297 21.9395 4.66667L21.9296 4.65676ZM20.79 6.87658L8.41252 19.2541L7.34225 17.1135L19.1846 5.28108L20.79 6.88649V6.87658ZM7.54045 19.8982L5.21162 20.6712C5.02333 19.7099 4.28009 18.9667 3.32874 18.7685L4.10171 16.4495L6.40081 17.5991L7.55036 19.8883L7.54045 19.8982ZM4.74585 15.5874L17.1233 3.20991L18.4314 4.51802L6.49 16.4595L4.74585 15.5874ZM4.18099 21.018L2.37739 21.6225L2.98189 19.809C3.62604 19.8784 4.12153 20.3838 4.18099 21.0279V21.018Z" fill="#222222"/>
</svg>
