<svg width="19" height="19" viewBox="0 0 19 19" fill="none" xmlns="http://www.w3.org/2000/svg">
<path d="M16.1095 5.9532H12.4434V3.32508C12.4434 2.02865 12.0557 1.08864 11.288 0.524629C10.0816 -0.360549 8.44444 0.136874 8.37394 0.160374L7.88044 0.317043V4.05751C7.88044 4.96227 7.38693 5.7652 6.41167 6.45062C6.09441 6.67388 6.01608 7.11255 6.23933 7.43372C6.46258 7.75097 6.90126 7.82931 7.22243 7.60606C8.57761 6.65429 9.29437 5.42836 9.29437 4.05751V1.41372C9.64688 1.38239 10.113 1.40589 10.4576 1.65656C10.8415 1.93856 11.0373 2.49866 11.0373 3.31725V7.35539H16.1134C16.9163 7.35539 17.5704 7.99381 17.5939 8.79282L16.5403 15.4082L16.5364 15.4317C16.4894 15.7998 16.3523 16.9239 14.6368 16.9239H6.73675C5.96125 16.9239 5.33065 16.2933 5.33065 15.5178V8.97691C5.33065 7.78231 4.35931 6.80704 3.16079 6.80704H2.16986C0.975263 6.80704 0 7.77839 0 8.97691V15.6862C0 16.8808 0.971346 17.8561 2.16986 17.8561C2.55762 17.8561 2.87487 17.5389 2.87487 17.1511C2.87487 16.7633 2.55762 16.4461 2.16986 16.4461C1.75077 16.4461 1.41002 16.1053 1.41002 15.6862V8.97691C1.41002 8.55782 1.75077 8.21706 2.16986 8.21706H3.16079C3.57988 8.21706 3.92063 8.55782 3.92063 8.97691V15.6862C3.92063 15.7411 3.92847 15.7998 3.94022 15.8507C4.10472 17.249 5.2954 18.3379 6.73675 18.3379H14.6289C15.428 18.3379 16.1408 18.1459 16.6813 17.7817C17.3785 17.3156 17.8093 16.5675 17.9268 15.6197L18.9882 8.96516C18.9961 8.92599 19 8.88291 19 8.84374C19 7.24963 17.7036 5.9532 16.1095 5.9532Z" fill="#426077"/>
</svg>
