<svg width="32" height="32" viewBox="0 0 32 32" fill="none" xmlns="http://www.w3.org/2000/svg">
<rect width="32" height="32" rx="16" fill="#0066FF"/>
<path d="M22.993 9.61716C23.0127 9.47931 22.993 9.3316 22.9044 9.21344C22.8847 9.1839 22.865 9.17405 22.8552 9.17405L22.8355 9.14451C22.8355 9.14451 22.8059 9.12481 22.7961 9.11497C22.7961 9.11497 22.7862 9.10512 22.7764 9.09527C22.7567 9.07558 22.7272 9.05589 22.6976 9.03619C22.5991 8.98696 22.481 8.98696 22.3333 9.0165C22.3037 9.0165 22.2742 9.02635 22.2643 9.03619L9.33529 14.324C9.12851 14.4126 8.99065 14.6194 9.0005 14.8361C9.0005 15.0625 9.15805 15.2595 9.37468 15.3284L14.9874 17.1402V22.4281C14.9874 22.6545 15.1351 22.8613 15.3419 22.9303C15.5487 22.9992 15.7949 22.9303 15.9328 22.7629L18.3551 19.7595L22.1265 22.8416C22.225 22.9204 22.3431 22.9598 22.4613 22.9598C22.5401 22.9598 22.6188 22.9401 22.6878 22.9106C22.8749 22.8219 22.993 22.6348 22.993 22.4281V9.61716ZM20.3048 10.9859L15.3616 16.1457L11.0881 14.7671L20.3146 10.9859H20.3048ZM21.9197 21.3055L16.2872 16.7168L21.9295 10.8579V21.3055H21.9197ZM17.5181 19.0899L16.0509 20.9116V17.8886L17.5181 19.0899Z" fill="#FFFFFF"/>
</svg>
