<svg width="32" height="32" viewBox="0 0 32 32" fill="none" xmlns="http://www.w3.org/2000/svg">
  <!-- Blue circular background -->
  <rect width="32" height="32" rx="16" fill="#0066FF" />
  
  <!-- Centered trash bin icon -->
  <g transform="translate(8,8)">
    <path d="M13.3434 2.71902H11.7436C11.4256 1.70549 10.4816 1 9.42838 1H6.64615C5.59287 1 4.6489 1.70549 4.33093 2.71902H2.73115C2.43306 2.71902 2.19458 2.9575 2.19458 3.25559V6.25643C2.19458 6.55452 2.43306 6.793 2.73115 6.793H2.9895V14.5534C2.9895 14.8515 3.22798 15.09 3.52608 15.09H12.5484C12.8465 15.09 13.085 14.8515 13.085 14.5534V6.793H13.3334C13.6315 6.793 13.87 6.55452 13.87 6.25643V3.25559C13.87 2.9575 13.6315 2.71902 13.3334 2.71902H13.3434ZM12.0119 6.81287V14.0169H10.3525V6.81287H12.0119ZM9.26939 6.81287V14.0169H6.75545V6.81287H9.26939ZM5.6823 6.81287V14.0169H4.06265V6.81287H5.6823ZM5.52332 2.71902C5.77173 2.32156 6.18907 2.08308 6.64615 2.08308H9.42838C9.88546 2.08308 10.3028 2.32156 10.5512 2.71902H5.52332ZM12.8068 3.8021V5.71985H3.26773V3.8021H12.8068Z" fill="#FFFFFF"/>
  </g>
</svg>
